{
    "asset" : {
        "generator" : "Khronos glTF Blender I/O v1.6.16",
        "version" : "2.0"
    },
    "scene" : 0,
    "scenes" : [
        {
            "name" : "Scene",
            "nodes" : [
                1
            ]
        }
    ],
    "nodes" : [
        {
            "mesh" : 0,
            "name" : "Airfield",
            "translation" : [
                -2874.269775390625,
                188.5950469970703,
                -1376.0399169921875
            ]
        },
        {
            "children" : [
                0
            ],
            "mesh" : 1,
            "name" : "EXPORT_GOOGLE_SAT_WM",
            "scale" : [
                0.45714130997657776,
                0.45714130997657776,
                0.45714130997657776
            ],
            "translation" : [
                1471.99169921875,
                -70.37952423095703,
                608.629638671875
            ]
        }
    ],
    "materials" : [
        {
            "doubleSided" : true,
            "name" : "Runway",
            "pbrMetallicRoughness" : {
                "baseColorFactor" : [
                    0.20354557037353516,
                    0.20354557037353516,
                    0.20354557037353516,
                    1
                ],
                "metallicFactor" : 0,
                "roughnessFactor" : 0
            }
        },
        {
            "doubleSided" : true,
            "name" : "Ground",
            "pbrMetallicRoughness" : {
                "baseColorFactor" : [
                    0.029384538531303406,
                    0.10936063528060913,
                    0.027618754655122757,
                    1
                ],
                "metallicFactor" : 0,
                "roughnessFactor" : 0
            }
        },
        {
            "doubleSided" : true,
            "name" : "Terrain",
            "pbrMetallicRoughness" : {
                "baseColorFactor" : [
                    0.04327871650457382,
                    0.1371542513370514,
                    0.042242638766765594,
                    1
                ],
                "metallicFactor" : 0,
                "roughnessFactor" : 0
            }
        }
    ],
    "meshes" : [
        {
            "name" : "Plane.002",
            "primitives" : [
                {
                    "attributes" : {
                        "POSITION" : 0,
                        "NORMAL" : 1,
                        "TEXCOORD_0" : 2
                    },
                    "indices" : 3,
                    "material" : 0
                },
                {
                    "attributes" : {
                        "POSITION" : 4,
                        "NORMAL" : 5,
                        "TEXCOORD_0" : 6
                    },
                    "indices" : 7,
                    "material" : 1
                }
            ]
        },
        {
            "name" : "EXPORT_GOOGLE_SAT_WM",
            "primitives" : [
                {
                    "attributes" : {
                        "POSITION" : 8,
                        "NORMAL" : 9,
                        "TEXCOORD_0" : 10,
                        "TEXCOORD_1" : 11
                    },
                    "indices" : 12,
                    "material" : 2
                }
            ]
        }
    ],
    "accessors" : [
        {
            "bufferView" : 0,
            "componentType" : 5126,
            "count" : 24,
            "max" : [
                1906.7113037109375,
                -38.935211181640625,
                502.4739990234375
            ],
            "min" : [
                -1906.711181640625,
                -38.935211181640625,
                -310.2325439453125
            ],
            "type" : "VEC3"
        },
        {
            "bufferView" : 1,
            "componentType" : 5126,
            "count" : 24,
            "type" : "VEC3"
        },
        {
            "bufferView" : 2,
            "componentType" : 5126,
            "count" : 24,
            "type" : "VEC2"
        },
        {
            "bufferView" : 3,
            "componentType" : 5123,
            "count" : 66,
            "type" : "SCALAR"
        },
        {
            "bufferView" : 4,
            "componentType" : 5126,
            "count" : 4,
            "max" : [
                2371.765625,
                -47.91333770751953,
                1185.215576171875
            ],
            "min" : [
                -2244.83251953125,
                -47.91333770751953,
                -1017.6871337890625
            ],
            "type" : "VEC3"
        },
        {
            "bufferView" : 5,
            "componentType" : 5126,
            "count" : 4,
            "type" : "VEC3"
        },
        {
            "bufferView" : 6,
            "componentType" : 5126,
            "count" : 4,
            "type" : "VEC2"
        },
        {
            "bufferView" : 7,
            "componentType" : 5123,
            "count" : 6,
            "type" : "SCALAR"
        },
        {
            "bufferView" : 8,
            "componentType" : 5126,
            "count" : 4225,
            "max" : [
                5424.64208984375,
                160.00003051757812,
                3107.68505859375
            ],
            "min" : [
                -5582.2919921875,
                59,
                -3007.278076171875
            ],
            "type" : "VEC3"
        },
        {
            "bufferView" : 9,
            "componentType" : 5126,
            "count" : 4225,
            "type" : "VEC3"
        },
        {
            "bufferView" : 10,
            "componentType" : 5126,
            "count" : 4225,
            "type" : "VEC2"
        },
        {
            "bufferView" : 11,
            "componentType" : 5126,
            "count" : 4225,
            "type" : "VEC2"
        },
        {
            "bufferView" : 12,
            "componentType" : 5123,
            "count" : 24576,
            "type" : "SCALAR"
        }
    ],
    "bufferViews" : [
        {
            "buffer" : 0,
            "byteLength" : 288,
            "byteOffset" : 0
        },
        {
            "buffer" : 0,
            "byteLength" : 288,
            "byteOffset" : 288
        },
        {
            "buffer" : 0,
            "byteLength" : 192,
            "byteOffset" : 576
        },
        {
            "buffer" : 0,
            "byteLength" : 132,
            "byteOffset" : 768
        },
        {
            "buffer" : 0,
            "byteLength" : 48,
            "byteOffset" : 900
        },
        {
            "buffer" : 0,
            "byteLength" : 48,
            "byteOffset" : 948
        },
        {
            "buffer" : 0,
            "byteLength" : 32,
            "byteOffset" : 996
        },
        {
            "buffer" : 0,
            "byteLength" : 12,
            "byteOffset" : 1028
        },
        {
            "buffer" : 0,
            "byteLength" : 50700,
            "byteOffset" : 1040
        },
        {
            "buffer" : 0,
            "byteLength" : 50700,
            "byteOffset" : 51740
        },
        {
            "buffer" : 0,
            "byteLength" : 33800,
            "byteOffset" : 102440
        },
        {
            "buffer" : 0,
            "byteLength" : 33800,
            "byteOffset" : 136240
        },
        {
            "buffer" : 0,
            "byteLength" : 49152,
            "byteOffset" : 170040
        }
    ],
    "buffers" : [
        {
            "byteLength" : 219192,
            "uri" : "data:application/octet-stream;base64,"
        }
    ]
}
